<?xml version="1.0" encoding="iso-8859-1"?>
<!-- Generator: Adobe Illustrator 16.0.0, SVG Export Plug-In . SVG Version: 6.00 Build 0)  -->
<!DOCTYPE svg PUBLIC "-//W3C//DTD SVG 1.1//EN" "http://www.w3.org/Graphics/SVG/1.1/DTD/svg11.dtd">
<svg xmlns="http://www.w3.org/2000/svg" xmlns:xlink="http://www.w3.org/1999/xlink" version="1.1" id="Capa_1" x="0px" y="0px" width="512px" height="512px" viewBox="0 0 452.995 452.996" style="enable-background:new 0 0 452.995 452.996;" xml:space="preserve">
<g>
	<g>
		<path d="M441.821,212.367c-0.903-1.143-22.558-28.295-59.366-55.338c-49.449-36.329-103.378-55.531-155.957-55.531    c-52.582,0-106.51,19.202-155.957,55.531c-36.921,27.124-58.473,54.204-59.367,55.339L0,226.498l11.17,14.125    c0.898,1.139,22.45,28.221,59.371,55.344c49.447,36.329,103.375,55.531,155.957,55.531c52.579,0,106.508-19.202,155.957-55.531    c36.81-27.044,58.463-54.195,59.367-55.338l11.173-14.131L441.821,212.367z M429.909,231.206    c-0.853,1.077-21.27,26.675-56.447,52.521c-46.823,34.399-97.642,52.582-146.964,52.582c-49.323,0-100.143-18.182-146.963-52.582    c-35.284-25.92-55.596-51.44-56.447-52.52l-3.725-4.709l3.729-4.714c0.847-1.074,21.158-26.594,56.442-52.514    c46.82-34.4,97.64-52.583,146.963-52.583c49.321,0,100.141,18.183,146.964,52.583c35.179,25.845,55.596,51.443,56.446,52.519    l3.725,4.709L429.909,231.206z" fill="#b7c3c7"/>
		<path d="M226.498,142.165c-46.502,0-84.335,37.831-84.335,84.333s37.833,84.333,84.335,84.333s84.334-37.832,84.334-84.333    S273,142.165,226.498,142.165z M226.498,295.642c-38.126,0-69.146-31.018-69.146-69.145s31.02-69.145,69.146-69.145    s69.146,31.018,69.146,69.145S264.624,295.642,226.498,295.642z" fill="#b7c3c7"/>
		<path d="M226.498,174.113v15.189c20.51,0,37.195,16.686,37.195,37.195h15.188C278.883,197.613,255.384,174.113,226.498,174.113z" fill="#b7c3c7"/>
	</g>
</g>
<g>
</g>
<g>
</g>
<g>
</g>
<g>
</g>
<g>
</g>
<g>
</g>
<g>
</g>
<g>
</g>
<g>
</g>
<g>
</g>
<g>
</g>
<g>
</g>
<g>
</g>
<g>
</g>
<g>
</g>
</svg>
